<?xml version="1.0" encoding="UTF-8"?>
<!-- Generated by Pixelmator Pro 3.4.3 -->
<svg width="488" height="533" viewBox="0 0 488 533" xmlns="http://www.w3.org/2000/svg">
    <path id="Light-Accent-2" fill="#f5c200" fill-rule="evenodd" stroke="none" d="M 204 198 C 203.50589 198 192.995056 194.909546 187.851654 192.354492 C 180.273193 188.589844 177.038208 186.218628 170.790649 179.848755 C 164.782379 173.722839 162.058502 169.928101 158.445709 162.650513 C 155.896118 157.514587 153.184814 150.654663 152.420654 147.40625 C 151.656494 144.157837 151.024231 137.055664 151.015625 131.623779 C 151.00531 125.096924 151.70108 118.761353 153.067322 112.941895 C 154.355652 107.454407 157.037262 100.436646 160.183838 94.318115 C 162.960907 88.918213 167.7099 80.807495 170.737183 76.294434 C 173.764465 71.781433 180.000854 63.522766 184.595825 57.941895 C 189.190857 52.360962 196.22406 44.173828 200.225189 39.748169 C 207.5 31.701538 210 29 210 29 C 210 29 209 91 209 91 Z M 401.25 174.633179 C 400.5625 174.73761 383.97052 179.363831 384 179 C 384.029419 178.636169 386 157 386 157 C 386 157 384.5047 145.261475 384.510498 141.96344 C 384.518005 137.654297 385.164612 134.753662 386.808472 131.654907 C 388.06665 129.283203 390.654785 125.738037 392.559814 123.776733 C 394.464844 121.815369 399.565308 118.367981 403.894165 116.115845 C 409.612 113.141113 415.421448 111.200439 425.132446 109.020996 C 432.484619 107.370972 440.974976 105.534546 444 104.940063 C 447.025024 104.345581 451.075012 103.48877 453 103.036133 C 454.924988 102.583374 458.075012 101.948059 460 101.624146 C 462.89093 101.137817 463.239014 101.253235 462 102.287598 C 461.174988 102.97644 459.863403 104.655945 459.085327 106.019958 C 458.30719 107.383972 455.811646 111.650024 453.539612 115.5 C 451.267578 119.349976 447.897644 125.650024 446.050903 129.5 C 444.204102 133.349976 442.573853 137.083862 442.42804 137.797546 C 442.282288 138.51123 440.589722 140.986206 438.66687 143.297546 C 436.744019 145.608887 431.407471 151.215454 426.807983 155.75647 C 422.208435 160.297546 416.657532 165.234375 414.472595 166.727173 C 412.287659 168.220032 401.9375 174.528809 401.25 174.633179 Z M 215 161 C 215 126.973206 211 81 211 81 C 211 81 210.587524 36.987976 211 37 C 211.412476 37.011963 216.080078 41.871338 220.455811 47.771851 C 224.831482 53.672363 231.864014 64.196533 236.083618 71.158936 C 240.303223 78.121399 244.931702 86.896362 246.369141 90.658936 C 247.806641 94.421509 250.528442 102.900024 252.417664 109.5 C 254.306885 116.099976 256.165771 123.299988 256.548462 125.5 C 257.244385 129.5 248 140 248 140 Z"/>
    <path id="Dark-accent" fill="#f59700" fill-rule="evenodd" stroke="none" d="M 71 432 C 71.317352 431.486511 46.855286 421.69046 45 420 C 43.144714 418.30954 36.658752 409.490448 35.320709 407.521332 C 33.982666 405.552246 31.838623 401.816895 30.556152 399.220581 C 29.273712 396.624268 25.415039 382.367523 25 381 C 24.433899 379.134796 41.999908 381.882019 50 381 C 53.186615 380.648682 76.469177 389.299988 78 386 C 80.375732 380.878693 86.22583 355.414734 84 353 C 81.77417 350.585266 68.224701 346.155701 66 345 C 61.955048 342.898621 61 339.1875 65 338 C 68.240295 337.038025 78.147522 334.822815 88 335 C 90.078217 335.037354 114.536438 346.109009 117 349 C 119.463562 351.890991 114.862335 410.700012 114 414 C 113.137634 417.299988 70.682648 432.513489 71 432 Z M 378 432 C 374.974976 432.087982 347.673279 427.823853 346 426 C 344.67688 424.557831 329.50824 424.59079 327 423 C 324.491821 421.409241 322.498962 412.959869 321 410 C 318.643677 405.347107 318.005127 402.723236 317 400 C 316.219055 397.884186 315.162415 395.133545 315 394 C 314.37793 389.658875 313.523376 378.979126 314 379 C 314.476624 379.020874 325.5672 378.925507 327 381 C 328.4328 383.074463 349.089172 350.074097 347 349 C 343.20166 347.046997 351.151123 338.725586 355 338 C 357.829834 337.466553 369.397339 335.155396 383 338 C 386.249329 338.679504 415.094299 370.504578 414 374 C 412.905762 377.495453 381.025024 431.912048 378 432 Z M 201 354 C 195.413544 351.007629 183.181427 344.612732 182 342 C 181.175171 340.175903 176.771759 327.868774 176 324 C 174.735321 317.660339 174 305 174 305 C 174 305 184.759949 314.218506 188 313 C 197.314758 309.496948 215.216064 294.513062 219 288 C 220.813904 284.877808 221.348816 275.489563 219 274 C 216.950195 272.700012 208.683716 271.654541 209 271 C 209.342651 270.290894 216.43396 269.229858 218 269 C 219.656372 268.756897 235.695984 270.942871 237 271 C 238.304077 271.057068 253.809265 283.539978 257 286 C 260.190735 288.460022 261.858704 323.211853 260 327 C 258.562439 329.929993 208.403687 357.965759 201 354 Z M 211 38 C 211 38 211 89 211 89 C 211 89 208 89 208 89 C 208 89 208 16 208 16 C 208 16 274.574402 80.97467 277 86 C 279.425659 91.025269 279.922485 170.730347 278 174 C 276.077515 177.269592 214.798523 211.662598 213 212 C 209.729919 212.613464 201.001282 176.092896 220 157 C 238.998718 137.907043 251.250122 138.639893 253 133 C 253.990479 129.807678 253.365906 119.339294 253 117 C 252.636414 114.675659 250.518188 104.348816 248.849731 99.079834 C 247.181152 93.810913 243.853516 85.776367 241.454956 81.225342 C 239.056335 76.674255 234.537048 69.024292 231.412048 64.225342 C 228.287048 59.426392 222.528442 51.252869 218.615112 46.06189 Z M 415 185 C 409.775024 185.180237 393 179 393 179 C 393 179 405.330688 171.309631 407.519836 169.854797 C 409.708923 168.399902 412.693237 166.599915 414.151672 165.854736 C 415.610107 165.109619 419.660095 161.784912 423.151672 158.466431 C 426.64325 155.14801 430.739441 150.987183 432.254272 149.220276 C 433.769165 147.453369 443.309326 134.150024 444.139282 132.5 C 444.969177 130.849976 446.75415 127.25 448.105957 124.5 C 449.457703 121.75 452.53949 116.125 454.954346 112 C 457.369263 107.875 465 96 465 96 C 465 96 464.081543 160.172424 462 162 C 459.918518 163.827637 423.110535 184.720276 415 185 Z"/>
    <path id="Light-Accent-1" fill="#f5c200" fill-rule="evenodd" stroke="none" d="M 211.000015 329 C 208.250015 329.266663 201.504318 329.450012 199.000015 329 C 196.495712 328.549988 192.709793 327.298584 190.000015 326 C 186.919144 324.523621 182.627487 321.254211 180.000015 318 C 177.68898 315.137817 176.51503 312.413208 176.000015 311 C 174.872787 307.906982 173.840561 305.68866 174.000015 302 C 174.087723 299.971252 175.000015 295 175.000015 295 C 175.000015 295 176.901871 295.94873 178.614578 296.589905 C 181.181564 297.550903 183.615524 297.393921 185.183609 296.69989 C 187.37413 295.730347 189.519363 293.896423 190.497025 292.005798 C 191.537369 289.993958 191.408707 287.860596 191.000015 286 C 190.647903 284.396851 189.675308 282.103149 188.243912 280.977234 C 185.999344 279.21167 186.000015 279 186.000015 279 C 186.000015 279 191.82515 273.698853 195.000015 272 C 200.094437 269.274109 204.960098 269.002869 208.000015 269 C 211.633438 268.996582 216.988113 270.389038 220.567032 272.486389 C 222.900467 273.853882 226.47554 277.242065 228.511551 280.015686 C 230.547562 282.789307 232.840408 287.141968 233.606705 289.688232 C 234.373062 292.234558 234.995621 297.058838 234.99025 300.408936 C 234.983414 304.686584 234.642654 308.488586 233.000015 312 C 231.713516 314.75 229.687881 318.20282 228.000015 320 C 226.312088 321.79718 222.932816 324.665283 220.000015 326 C 217.067276 327.334778 213.750015 328.733398 211.000015 329 Z M 355.919586 405.819244 C 352.805328 406.121246 345.166077 406.328857 342.330048 405.819244 C 339.494019 405.309631 335.206635 403.892456 332.137909 402.421875 C 328.648926 400.749939 323.788788 397.047424 320.813293 393.362183 C 318.196136 390.12085 316.866669 387.035339 316.283447 385.434937 C 315.006897 381.93222 313.837952 379.420044 314.018524 375.242798 C 314.117828 372.945313 315.15097 367.315552 315.15097 367.315552 C 315.15097 367.315552 317.304749 368.389954 319.244324 369.116089 C 322.151337 370.204346 324.907715 370.026581 326.683502 369.240631 C 329.164185 368.142639 331.593567 366.065796 332.700745 363.924744 C 333.878906 361.646423 333.733185 359.230469 333.270355 357.123413 C 332.871613 355.307922 331.770172 352.710388 330.14917 351.435303 C 327.6073 349.435913 327.608063 349.196198 327.608063 349.196198 C 327.608063 349.196198 334.204803 343.192841 337.800201 341.268982 C 343.569458 338.182007 349.07962 337.874817 352.522217 337.871582 C 356.636932 337.867706 362.700897 339.444611 366.753876 341.819763 C 369.396393 343.368408 373.445038 347.205383 375.750732 350.346436 C 378.056427 353.487427 380.652985 358.416626 381.520782 361.300171 C 382.388672 364.183807 383.093689 369.647125 383.087616 373.440979 C 383.079865 378.285248 382.69397 382.590881 380.83374 386.567413 C 379.376831 389.681671 377.082886 393.591858 375.171448 395.627106 C 373.259918 397.662354 369.433014 400.910339 366.111755 402.421875 C 362.790527 403.933472 359.033875 405.517334 355.919586 405.819244 Z M 68.83992 407.678406 C 65.600494 407.992523 57.65424 408.208496 54.704239 407.678406 C 51.754234 407.148285 47.294525 405.674164 44.102478 404.14447 C 40.473293 402.405334 35.417839 398.554077 32.322746 394.720703 C 29.600409 391.349121 28.217527 388.139587 27.610853 386.474854 C 26.283009 382.83139 25.067074 380.218262 25.254906 375.873108 C 25.358223 373.483307 26.43288 367.627319 26.43288 367.627319 C 26.43288 367.627319 28.673214 368.744873 30.690739 369.500183 C 33.714581 370.632202 36.581718 370.447266 38.428883 369.62973 C 41.009254 368.48764 43.536282 366.327332 44.687943 364.10022 C 45.913441 361.730316 45.761879 359.217285 45.280453 357.025543 C 44.865673 355.137085 43.719982 352.435181 42.033836 351.108856 C 39.389793 349.029083 39.390587 348.779724 39.390587 348.779724 C 39.390587 348.779724 46.252438 342.535156 49.992344 340.533936 C 55.993435 337.322906 61.725056 337.003387 65.306 337 C 69.586075 336.995972 75.893738 338.636261 80.109604 341.106873 C 82.85833 342.717773 87.069672 346.708923 89.468033 349.976196 C 91.866402 353.243439 94.567314 358.370758 95.469994 361.370178 C 96.372742 364.36969 97.106094 370.052551 97.09977 373.998901 C 97.091721 379.037842 96.690315 383.516479 94.755325 387.652832 C 93.239868 390.892273 90.853722 394.959595 88.865463 397.07663 C 86.877129 399.193665 82.896439 402.572205 79.441673 404.14447 C 75.986992 405.716797 72.079346 407.364349 68.83992 407.678406 Z"/>
    <path id="Outline" fill="#16273a" fill-rule="evenodd" stroke="none" d="M 207.890625 532.887695 C 207.562408 532.889099 207.25174 532.887817 206.960938 532.883789 C 202.308105 532.81897 194.225006 532.176941 189 531.458008 C 183.774994 530.739075 174.984253 529.228516 169.462891 528.100586 C 163.941528 526.972656 154.716522 524.652832 148.962891 522.946289 C 143.209259 521.239685 132.677155 517.187622 125.558594 513.942383 C 118.440056 510.697083 109.113075 505.924927 104.832031 503.336884 C 100.550957 500.748901 91.973701 494.762512 85.773438 490.034149 C 77.989067 484.097809 73.92746 480.274719 72.650391 477.682587 C 71.551971 475.453186 71.044556 472.959747 71.400391 471.541962 C 71.729919 470.229004 73.12207 467.820984 74.494141 466.190399 C 75.982788 464.421234 78.391144 462.962219 80.464844 462.573212 C 82.902252 462.115936 84.940918 462.456665 87.294922 463.711884 C 89.140778 464.696167 95.567772 469.076355 101.576172 473.446259 C 107.584541 477.816223 116.532249 483.781616 121.458984 486.702118 C 126.38575 489.62262 135.005463 493.806458 140.613281 495.998993 C 146.221069 498.191528 156.346069 501.563232 163.115234 503.493134 C 169.884399 505.423065 183.203766 508.371613 189 509.000946 C 195.323669 509.687561 204.399063 510.298889 217 510.000946 C 237.144302 509.524658 239.062119 508.150543 252.28125 504.670868 C 259.860596 502.675781 269.535645 499.661255 273.78125 497.971649 C 278.026855 496.282043 284.609497 493.329681 288.408203 491.411102 C 292.20697 489.492554 299.182007 485.420197 303.908203 482.362274 C 308.63446 479.304443 315.824646 474.259369 319.886719 471.151337 C 323.948792 468.043365 328.857361 464.665802 330.794922 463.645477 C 333.179565 462.389709 335.437256 461.971802 337.783203 462.352509 C 339.689331 462.661835 342.156006 463.721985 343.263672 464.707977 C 344.371399 465.694 345.884827 467.935181 346.626953 469.688446 C 347.407227 471.531738 347.711304 474.196228 347.349609 476.004852 C 346.952942 477.988281 345.220642 480.374878 342.613281 482.52829 C 340.351746 484.396088 335.575012 488.111206 332 490.784149 C 328.424988 493.457153 322.05481 497.959961 317.84375 500.790009 C 313.63269 503.620117 304.63269 508.606018 297.84375 511.870087 C 291.05481 515.134216 280.775024 519.380554 275 521.305664 C 269.224976 523.230713 259.324951 525.947571 253 527.342773 C 246.674988 528.738037 235.633118 530.58197 228.460938 531.44043 C 221.737 532.245239 212.813599 532.866638 207.890625 532.887695 Z M 209 453.000946 C 195.192902 453.000946 184 441.808044 184 428.000946 C 184 414.193848 195.192902 403.000946 209 403.000946 C 222.807098 403.000946 234 414.193848 234 428.000946 C 234 441.808044 222.807098 453.000946 209 453.000946 Z M 354 445.000946 C 338.501801 445.000946 324.233704 439.736511 312.882813 430.901337 C 311.904602 430.24707 311.019775 429.639984 310.345703 429.149384 C 308.536133 427.83252 306.018738 425.206543 304.109375 422.719696 C 293.471924 410.859894 287 395.18634 287 378.000946 C 287 371.173767 288.022034 364.585632 289.919922 358.379852 C 290.513 357.294952 290 357.000946 290 357.000946 C 290 357.000946 261 338.000946 261 338.000946 C 261 338.000946 259.611816 339.426422 259.228516 339.623993 C 248.223434 355.558655 229.830826 366.000946 209 366.000946 C 187.788895 366.000946 169.107376 355.173157 158.177734 338.745087 C 158.113281 338.734833 157 337.000946 157 337.000946 C 157 337.000946 128.984375 356.936493 128.984375 356.936493 C 128.984375 356.936493 128.701294 357.156952 128.65625 357.206024 C 130.824921 363.743805 132 370.735382 132 378.000946 C 132 395.540894 125.156929 411.481354 113.996094 423.301727 C 113.092041 424.286987 112.1651 425.22937 111.212891 426.120087 C 110.653381 426.643494 110.032532 427.188293 109.378906 427.74118 C 97.778976 437.866211 82.606583 444.000946 66 444.000946 C 62.759777 444.000946 59.574238 443.76651 56.458984 443.315399 C 55.184631 443.224487 54.095673 443.107727 53.316406 442.967743 C 50.464977 442.455536 46.410847 441.442719 44.306641 440.717743 C 42.202404 439.992767 36.935444 437.624023 32.603516 435.454071 C 26.771318 432.532593 23.225941 429.871887 18.943359 425.198212 C 15.762399 421.726746 11.372034 415.875122 9.185547 412.194305 C 7.866551 409.973877 6.4248 406.871216 5.144531 403.586884 C 2.612801 397.572601 0.945494 391.104889 0.300781 384.338837 C 0.115815 382.723389 0.017761 381.24762 0.021484 380.000946 C 0.021698 379.925415 0.022858 379.843933 0.023438 379.766571 C 0.008026 379.179749 0 378.591492 0 378.000946 C 0 359.849731 7.327398 343.409363 19.185547 331.477509 C 19.882111 330.702423 20.499695 330.074677 20.972656 329.676727 C 21.117004 329.555267 21.29541 329.41684 21.488281 329.270477 C 33.224392 318.544189 48.847702 312.000946 66 312.000946 C 87.795219 312.000946 107.122055 322.566589 119.140625 338.854462 C 119.355988 338.839935 120 340.000946 120 340.000946 C 120 340.000946 149.820313 319.846649 149.820313 319.846649 C 149.820313 319.846649 148 310.121735 148 305.000946 C 148 274.608887 170.227661 249.408173 199.3125 244.766571 C 199.940979 243.315338 200 240.568939 200 233.600555 C 200 225.139252 199.646759 221.952423 198.613281 221.094696 C 197.850494 220.461639 194.290161 219.329987 190.701172 218.579071 C 187.112213 217.828156 179.973633 215.149872 174.837891 212.627899 C 169.702148 210.105927 162.690094 205.732758 159.253906 202.909149 C 155.817749 200.085541 150.759125 194.916351 148.013672 191.422821 C 145.268188 187.92923 141.160919 182.031036 138.886719 178.315399 C 136.612488 174.599762 133.697906 169.071381 132.410156 166.030243 C 131.122437 162.989166 129.154053 156.826569 128.035156 152.33493 C 126.636108 146.718597 126.007874 140.941376 126.021484 133.83493 C 126.032379 128.151581 126.490295 120.383514 127.041016 116.573212 C 127.591736 112.762848 129.657593 104.474274 131.630859 98.15329 C 133.604095 91.832245 137.12793 82.94693 139.462891 78.409149 C 141.797882 73.871368 146.278778 66.409943 149.419922 61.829071 C 152.561035 57.248199 157.239868 50.706573 159.816406 47.291962 C 162.392944 43.87735 169.225006 36.055389 175 29.909149 C 180.774994 23.762909 190.192139 14.519775 195.925781 9.368164 C 203.880081 2.221191 207.018433 0.000977 209.171875 0.000977 C 211.288513 0.000977 213.93335 1.800903 219.748047 7.198242 C 224.012207 11.156372 231.258118 18.01886 235.849609 22.448212 C 240.44104 26.877655 247.316589 34.100922 251.128906 38.500946 C 254.941223 42.90097 259.816895 48.564972 261.964844 51.086884 C 264.112854 53.608795 268.452698 59.908844 271.609375 65.086884 C 274.765991 70.264984 278.768799 77.425934 280.503906 81.000946 C 282.238953 84.575958 285.052979 91.550934 286.755859 96.500946 C 288.458679 101.450958 290.628601 109.227142 291.578125 113.782196 C 292.963196 120.42691 293.181274 124.874725 292.6875 136.282196 C 292.25116 146.363007 291.442871 152.683319 289.908203 158.000946 C 288.717712 162.125946 286.189087 168.425934 284.289063 172.000946 C 282.389038 175.575958 279.669312 180.52597 278.244141 183.000946 C 276.819031 185.475922 271.792847 191.356842 267.076172 196.069305 C 261.832153 201.308563 255.932373 206.056671 251.890625 208.290009 C 248.255188 210.298859 241.730225 213.337921 237.390625 215.043915 C 233.051025 216.749908 227.700012 218.398468 225.5 218.707977 C 223.299988 219.017487 220.9375 219.715668 220.25 220.258759 C 219.381104 220.945099 219 224.71524 219 232.623993 C 219 240.760956 219.192505 243.453644 220.175781 245.024384 C 243.401337 249.32486 262.008667 266.781494 267.978516 289.375946 C 268.499451 290.773529 268.896301 292.032806 269.099609 293.000946 C 269.460205 294.717621 269.685913 297.020416 269.775391 299.748993 C 269.922974 301.480011 270 303.231659 270 305.000946 C 270 307.963287 269.786987 310.876007 269.378906 313.725555 C 269.290649 316.252594 269 320.000946 269 320.000946 C 269 320.000946 299 340.000946 299 340.000946 C 299 340.000946 299.62561 338.751556 299.693359 338.754852 C 311.865967 321.940369 331.655121 311.000946 354 311.000946 C 391.002899 311.000946 421 340.998016 421 378.000946 C 421 415.003845 391.002899 445.000946 354 445.000946 Z M 353.451172 423.034149 C 378.625214 423.034149 399.033203 402.62619 399.033203 377.452118 C 399.033203 361.612732 390.951599 347.662537 378.689453 339.493134 C 378.356506 339.281769 378.026428 339.075531 377.701172 338.881805 C 372.839172 335.985687 368.551086 334.275421 364.5 333.61618 C 361.200012 333.079193 354.900024 332.627411 350.5 332.612274 C 346.821045 332.599579 344.581299 332.699677 342.351563 333.233368 C 342.261292 333.255951 342.170105 333.276642 342.080078 333.299774 C 342.059875 333.304962 342.039734 333.31015 342.019531 333.315399 C 341.884583 333.350189 341.751587 333.388702 341.617188 333.424774 C 339.773865 333.944366 337.832214 334.779755 335 336.112274 C 330.499756 338.229462 325.092529 341.870941 321.480469 345.21579 C 320.302734 346.306366 319.235474 347.387115 318.246094 348.495087 C 311.762024 356.368835 307.869141 366.455933 307.869141 377.452118 C 307.869141 402.62619 328.277069 423.034149 353.451172 423.034149 Z M 65.458984 422.362274 C 90.257347 422.362274 110.361328 402.25824 110.361328 377.45993 C 110.361328 352.661652 90.257347 332.557587 65.458984 332.557587 C 40.660664 332.557587 20.556641 352.661652 20.556641 377.45993 C 20.556641 402.25824 40.660664 422.362274 65.458984 422.362274 Z M 208.5 346.000946 C 208.822174 346.000946 209.142456 345.99649 209.462891 345.989227 C 209.53125 345.98764 209.59967 345.98526 209.667969 345.983368 C 209.981934 345.97464 210.295227 345.963837 210.607422 345.948212 C 210.616516 345.947723 210.625671 345.946686 210.634766 345.946259 C 210.932983 345.931122 211.230835 345.91098 211.527344 345.889618 C 211.638184 345.881622 211.748779 345.873077 211.859375 345.864227 C 212.154663 345.840546 212.448608 345.815887 212.742188 345.786102 C 213.075256 345.752228 213.407593 345.714447 213.738281 345.672821 C 213.766968 345.669159 213.795532 345.664764 213.824219 345.661102 C 214.130432 345.621857 214.436157 345.579987 214.740234 345.534149 C 214.749939 345.532684 214.759827 345.531708 214.769531 345.530243 C 214.831421 345.520844 214.89325 345.51059 214.955078 345.500946 C 215.206055 345.4617 215.455627 345.419586 215.705078 345.375946 C 215.789246 345.361176 215.872986 345.346222 215.957031 345.331024 C 216.25354 345.277191 216.549438 345.221161 216.84375 345.161102 C 216.873169 345.15506 216.902283 345.147614 216.931641 345.141571 C 217.177612 345.09079 217.423584 345.038483 217.667969 344.983368 C 217.782227 344.95755 217.895813 344.931915 218.009766 344.905243 C 218.255676 344.847565 218.499939 344.787567 218.744141 344.725555 C 218.747986 344.724579 218.752014 344.724579 218.755859 344.723602 C 218.887695 344.690033 219.019043 344.652863 219.150391 344.618134 C 219.296326 344.579437 219.442566 344.541107 219.587891 344.500946 C 219.733521 344.460663 219.878479 344.419708 220.023438 344.377899 C 220.246826 344.313446 220.469543 344.248688 220.691406 344.180634 C 220.695923 344.17923 220.700562 344.17807 220.705078 344.176727 C 220.847351 344.132965 220.989197 344.087128 221.130859 344.041962 C 221.310425 343.98465 221.489441 343.925873 221.667969 343.86618 C 221.729187 343.845673 221.790466 343.826385 221.851563 343.805634 C 222.136902 343.70871 222.420593 343.607697 222.703125 343.504852 C 222.772156 343.479645 222.841248 343.454193 222.910156 343.42868 C 223.10199 343.357635 223.291931 343.283722 223.482422 343.20993 C 223.603577 343.162994 223.725098 343.11734 223.845703 343.069305 C 223.855469 343.065399 223.865234 343.061493 223.875 343.057587 C 224.104126 342.966095 224.333435 342.873688 224.560547 342.77829 C 224.65741 342.737579 224.753113 342.694672 224.849609 342.65329 C 225.041809 342.57077 225.233093 342.488556 225.423828 342.40329 C 225.711792 342.274506 225.998718 342.141876 226.283203 342.006805 C 226.288452 342.004303 226.293579 342.001495 226.298828 341.998993 C 226.45575 341.924347 226.611755 341.848907 226.767578 341.77243 C 226.976685 341.669708 227.185425 341.56601 227.392578 341.45993 C 227.664612 341.320587 227.93457 341.177338 228.203125 341.032196 C 228.266907 340.997711 228.330933 340.96347 228.394531 340.92868 C 228.631165 340.799164 228.865784 340.66806 229.099609 340.534149 C 229.136536 340.51297 229.174072 340.492889 229.210938 340.471649 C 230.350342 339.814178 231.455688 339.103973 232.523438 338.344696 C 232.764587 338.173187 233.00293 337.997711 233.240234 337.821259 C 233.269775 337.799225 233.300598 337.778839 233.330078 337.756805 C 233.351624 337.740692 233.373047 337.724091 233.394531 337.707977 C 233.638855 337.524506 233.880981 337.338043 234.121094 337.149384 C 234.348938 336.970306 234.57489 336.788116 234.798828 336.604462 C 234.847473 336.564484 234.896851 336.525482 234.945313 336.485321 C 235.185547 336.286469 235.422607 336.083954 235.658203 335.879852 C 235.85968 335.705292 236.059753 335.528839 236.257813 335.350555 C 236.331177 335.284393 236.403687 335.217926 236.476563 335.151337 C 236.633545 335.007782 236.790527 334.863617 236.945313 334.717743 C 236.961731 334.70224 236.977722 334.686371 236.994141 334.670868 C 237.102173 334.568634 237.209473 334.465607 237.316406 334.362274 C 237.346191 334.333466 237.376526 334.305206 237.40625 334.276337 C 237.452087 334.231781 237.497314 334.186249 237.542969 334.141571 C 237.800964 333.888458 238.055237 333.631744 238.306641 333.37204 C 238.449768 333.224152 238.593384 333.076691 238.734375 332.926727 C 238.739075 332.921661 238.743286 332.916107 238.748047 332.911102 C 238.797852 332.858063 238.846924 332.804169 238.896484 332.750946 C 238.99176 332.648346 239.087341 332.545868 239.181641 332.442352 C 239.32489 332.285004 239.466553 332.125275 239.607422 331.96579 C 239.748291 331.806305 239.888855 331.646942 240.027344 331.485321 C 240.027344 331.485321 240.029297 331.483368 240.029297 331.483368 C 246.244629 324.227753 250 314.803711 250 304.500946 C 250 299.861847 249.238281 295.400726 247.833984 291.235321 C 247.783081 291.089386 247.734619 290.943878 247.681641 290.797821 C 247.421448 290.053741 247.140503 289.318695 246.839844 288.594696 C 246.833923 288.580414 246.828186 288.565948 246.822266 288.551727 C 246.820557 288.547699 246.818054 288.543976 246.816406 288.540009 C 246.726746 288.324982 246.636108 288.110504 246.542969 287.89743 C 246.531311 287.870697 246.519531 287.843964 246.507813 287.817352 C 246.50116 287.802155 246.492981 287.787567 246.486328 287.77243 C 246.385681 287.54422 246.284302 287.316803 246.179688 287.09079 C 245.855164 286.389618 245.510254 285.699799 245.148438 285.020477 C 245.137085 284.999115 245.126648 284.977325 245.115234 284.956024 C 245.112061 284.950104 245.108643 284.944305 245.105469 284.938446 C 244.983704 284.71109 244.860168 284.485443 244.734375 284.260712 C 244.605286 284.03006 244.473145 283.799103 244.339844 283.571259 C 243.939819 282.887604 243.52124 282.217499 243.083984 281.55954 C 242.94574 281.351471 242.805969 281.143829 242.664063 280.938446 C 242.656372 280.927277 242.648315 280.916351 242.640625 280.905243 C 242.631592 280.89212 242.622314 280.879242 242.613281 280.86618 C 242.47229 280.663055 242.330017 280.461151 242.185547 280.260712 C 241.894287 279.856598 241.596252 279.458405 241.291016 279.065399 C 241.273926 279.043365 241.257324 279.020905 241.240234 278.998993 C 241.237122 278.994965 241.233582 278.991241 241.230469 278.987274 C 241.126099 278.853546 241.02002 278.721161 240.914063 278.588837 C 240.837402 278.493073 240.761047 278.396759 240.683594 278.301727 C 240.547241 278.134369 240.4104 277.968781 240.271484 277.80368 C 240.263733 277.794464 240.255798 277.785492 240.248047 277.776337 C 240.23822 277.764618 240.228577 277.752838 240.21875 277.74118 C 240.059204 277.552216 239.897217 277.364655 239.734375 277.17868 C 239.40863 276.806549 239.076904 276.43924 238.738281 276.079071 C 238.717468 276.056915 238.696594 276.03476 238.675781 276.012665 C 238.673218 276.009979 238.670471 276.007538 238.667969 276.004852 C 238.490295 275.816803 238.309998 275.630951 238.128906 275.446259 C 237.94519 275.258942 237.75946 275.073456 237.572266 274.889618 C 237.385071 274.70578 237.196472 274.523041 237.005859 274.342743 C 236.815247 274.162445 236.623718 273.984222 236.429688 273.807587 C 236.27887 273.670258 236.125427 273.534454 235.972656 273.399384 C 235.928833 273.360626 235.885742 273.320709 235.841797 273.282196 C 235.831055 273.272736 235.819336 273.264252 235.808594 273.254852 C 235.682373 273.144379 235.555298 273.035675 235.427734 272.926727 C 235.315186 272.830658 235.20343 272.734467 235.089844 272.639618 C 234.971069 272.540314 234.852356 272.440704 234.732422 272.342743 C 234.630615 272.259552 234.526428 272.178864 234.423828 272.096649 C 234.2901 271.989471 234.156555 271.881866 234.021484 271.776337 C 233.814453 271.614594 233.606628 271.453705 233.396484 271.295868 C 233.394592 271.294464 233.392517 271.293365 233.390625 271.291962 C 233.272156 271.202972 233.152649 271.115997 233.033203 271.02829 C 232.917114 270.943085 232.800537 270.858429 232.683594 270.774384 C 232.539063 270.670563 232.393921 270.56778 232.248047 270.46579 C 232.148193 270.395966 232.047729 270.327667 231.947266 270.258759 C 231.830688 270.178741 231.715027 270.097321 231.597656 270.018524 C 231.403992 269.888519 231.207642 269.760529 231.011719 269.633759 C 230.941833 269.588531 230.872925 269.54184 230.802734 269.49704 C 230.693481 269.427277 230.582642 269.360748 230.472656 269.291962 C 230.358887 269.220795 230.245361 269.149139 230.130859 269.079071 C 230.002563 269.000519 229.873352 268.923798 229.744141 268.846649 C 229.589172 268.75412 229.433594 268.661774 229.277344 268.571259 C 229.164246 268.505707 229.05127 268.44046 228.9375 268.375946 C 228.816833 268.307526 228.695618 268.240021 228.574219 268.172821 C 228.435913 268.096222 228.297424 268.019318 228.158203 267.944305 C 228.029358 267.874847 227.89917 267.807343 227.769531 267.739227 C 227.44635 267.569427 227.121094 267.402618 226.792969 267.24118 C 226.746704 267.218414 226.700684 267.195404 226.654297 267.172821 C 226.647217 267.169342 226.639893 267.166473 226.632813 267.163055 C 226.484375 267.09079 226.334961 267.02066 226.185547 266.950165 C 226.045227 266.883942 225.904785 266.817535 225.763672 266.752899 C 225.63916 266.695831 225.513794 266.640778 225.388672 266.58493 C 225.205383 266.503143 225.022583 266.421906 224.837891 266.342743 C 224.758423 266.308624 224.679321 266.272797 224.599609 266.239227 C 224.312988 266.118439 224.024231 266.000153 223.734375 265.885712 C 223.728638 265.883453 223.722534 265.882111 223.716797 265.879852 C 223.435608 265.768951 223.153259 265.660492 222.869141 265.555634 C 222.728638 265.503754 222.586487 265.455597 222.445313 265.405243 C 222.330139 265.364166 222.21521 265.322235 222.099609 265.282196 C 221.937378 265.225922 221.774475 265.170441 221.611328 265.11618 C 221.445068 265.060822 221.278503 265.007294 221.111328 264.954071 C 220.993896 264.916656 220.877625 264.877167 220.759766 264.84079 C 220.740234 264.834747 220.720703 264.829193 220.701172 264.823212 C 220.422607 264.73764 220.142395 264.654999 219.861328 264.575165 C 219.554443 264.488007 219.245239 264.405365 218.935547 264.325165 C 218.870605 264.308319 218.805298 264.292816 218.740234 264.276337 C 218.510864 264.218109 218.281677 264.160797 218.050781 264.106415 C 217.950623 264.082794 217.850464 264.058929 217.75 264.036102 C 217.526489 263.985199 217.301025 263.936859 217.076172 263.889618 C 216.986938 263.870819 216.89801 263.851166 216.808594 263.832977 C 216.794189 263.830048 216.780029 263.82608 216.765625 263.823212 C 216.460144 263.761444 216.153564 263.704376 215.845703 263.649384 C 215.519409 263.591095 215.1922 263.537872 214.863281 263.487274 C 214.830688 263.482269 214.798218 263.476593 214.765625 263.471649 C 214.440186 263.422333 214.113037 263.376617 213.785156 263.33493 C 213.505127 263.299347 213.223145 263.267242 212.941406 263.237274 C 212.858521 263.228424 212.776367 263.218231 212.693359 263.20993 C 212.628479 263.2034 212.563049 263.198578 212.498047 263.192352 C 212.263123 263.169891 212.028992 263.148346 211.792969 263.129852 C 211.658447 263.119293 211.523499 263.111786 211.388672 263.102509 C 211.218506 263.09079 211.047668 263.078949 210.876953 263.069305 C 210.721802 263.060516 210.565735 263.052887 210.410156 263.045868 C 210.176208 263.035248 209.941956 263.027191 209.707031 263.020477 C 209.643921 263.018646 209.58075 263.016144 209.517578 263.014618 C 209.179077 263.006439 208.840485 263.000946 208.5 263.000946 C 208.141205 263.000946 207.784332 263.005524 207.427734 263.014618 C 207.072418 263.02359 206.718262 263.035797 206.365234 263.05368 C 206.365234 263.05368 206.363281 263.05368 206.363281 263.05368 C 206.009613 263.071564 205.657898 263.095306 205.306641 263.12204 C 204.954712 263.148773 204.605255 263.178314 204.255859 263.213837 C 203.55896 263.284637 202.865936 263.374603 202.179688 263.479462 C 201.835602 263.532013 201.493591 263.588409 201.152344 263.649384 C 200.812347 263.710114 200.473785 263.773773 200.136719 263.842743 C 200.136719 263.842743 200.134766 263.842743 200.134766 263.842743 C 199.797058 263.911835 199.461609 263.986176 199.126953 264.063446 C 198.791687 264.140839 198.459045 264.222137 198.126953 264.307587 C 197.795441 264.392853 197.466919 264.481903 197.138672 264.575165 C 195.825714 264.948029 194.539642 265.384369 193.283203 265.879852 C 192.654968 266.127533 192.034668 266.389862 191.421875 266.666962 C 191.421875 266.666962 191.419922 266.666962 191.419922 266.666962 C 191.113525 266.80545 190.810181 266.947052 190.507813 267.092743 C 190.204895 267.238678 189.904205 267.386932 189.605469 267.540009 C 189.30722 267.69278 189.012756 267.84903 188.71875 268.008759 C 188.424225 268.168732 188.131927 268.332123 187.841797 268.498993 C 187.552124 268.665558 187.265686 268.835419 186.980469 269.008759 C 186.694794 269.182343 186.411957 269.357819 186.130859 269.538055 C 185.850189 269.717987 185.572845 269.902374 185.296875 270.088837 C 185.020447 270.275543 184.746216 270.46402 184.474609 270.657196 C 184.2034 270.850067 183.936218 271.045929 183.669922 271.245087 C 183.403198 271.44455 183.138641 271.64682 182.876953 271.852509 C 182.615631 272.057831 182.357758 272.266083 182.101563 272.477509 C 181.844971 272.68924 181.591187 272.902313 181.339844 273.120087 C 181.088837 273.337494 180.84137 273.558929 180.595703 273.782196 C 179.858704 274.451996 179.146088 275.14743 178.458984 275.868134 C 178.001251 276.348236 177.55365 276.839203 177.119141 277.34079 C 177.119141 277.34079 177.119141 277.342743 177.119141 277.342743 C 176.684631 277.84433 176.261963 278.355682 175.851563 278.877899 C 175.851563 278.877899 175.851563 278.879852 175.851563 278.879852 C 175.440857 279.402435 175.041962 279.935089 174.65625 280.477509 C 174.270538 281.019867 173.896942 281.570465 173.537109 282.131805 C 173.177246 282.693085 172.831177 283.263397 172.498047 283.842743 C 171.998352 284.7117 171.5289 285.601593 171.091797 286.508759 C 170.946075 286.811127 170.804535 287.114471 170.666016 287.420868 C 170.250427 288.340057 169.866669 289.277985 169.517578 290.231415 C 168.93573 291.820465 168.448761 293.45462 168.0625 295.127899 C 167.598999 297.135773 167.281464 299.199921 167.121094 301.307587 C 167.067627 302.010101 167.031708 302.716766 167.013672 303.42868 C 167.004639 303.784576 167 304.142792 167 304.500946 C 167 304.859039 167.004639 305.215302 167.013672 305.571259 C 167.031708 306.283112 167.067627 306.99173 167.121094 307.694305 C 167.281464 309.80191 167.598999 311.864105 168.0625 313.87204 C 168.448608 315.544647 168.936035 317.180023 169.517578 318.768524 C 169.517578 318.768524 169.517578 318.770477 169.517578 318.770477 C 169.5495 318.857635 169.584686 318.943268 169.617188 319.030243 C 169.939972 319.893707 170.288422 320.743927 170.666016 321.579071 C 170.804535 321.885468 170.946075 322.190704 171.091797 322.493134 C 171.5289 323.400238 171.998352 324.288177 172.498047 325.157196 C 172.831177 325.736481 173.177246 326.306793 173.537109 326.868134 C 173.896942 327.429413 174.270538 327.981964 174.65625 328.524384 C 175.427673 329.609161 176.249481 330.655182 177.119141 331.659149 C 177.553955 332.161102 178.000916 332.65329 178.458984 333.133759 C 178.688019 333.373993 178.919586 333.609955 179.154297 333.844696 C 179.623657 334.314056 180.10437 334.773102 180.595703 335.219696 C 180.841003 335.442596 181.089233 335.66275 181.339844 335.879852 C 181.59082 336.09726 181.845367 336.312897 182.101563 336.524384 C 182.357361 336.735504 182.616058 336.944305 182.876953 337.149384 C 182.990417 337.238556 183.106293 337.325043 183.220703 337.413055 C 183.522156 337.644928 183.826843 337.872955 184.134766 338.096649 C 184.517395 338.374603 184.90451 338.64798 185.296875 338.913055 C 185.572388 339.099152 185.850677 339.282196 186.130859 339.461884 C 186.411499 339.641815 186.695251 339.819794 186.980469 339.993134 C 187.265198 340.166107 187.552612 340.336578 187.841797 340.502899 C 188.13147 340.669464 188.424744 340.831451 188.71875 340.99118 C 189.012238 341.150604 189.307739 341.307404 189.605469 341.45993 C 189.704803 341.510773 189.806458 341.558258 189.90625 341.608368 C 190.310608 341.811371 190.719055 342.008148 191.130859 342.198212 C 191.532837 342.383698 191.93689 342.566315 192.345703 342.739227 C 193.276642 343.132965 194.22525 343.493011 195.189453 343.819305 C 195.832245 344.036774 196.482178 344.240265 197.138672 344.426727 C 197.466309 344.519745 197.796051 344.609161 198.126953 344.694305 C 198.458435 344.779572 198.792297 344.861176 199.126953 344.938446 C 199.460968 345.015533 199.797699 345.088165 200.134766 345.157196 C 200.81015 345.29538 201.492767 345.41745 202.179688 345.52243 C 202.522491 345.574799 202.867371 345.623016 203.212891 345.666962 C 203.905212 345.754974 204.604095 345.826385 205.306641 345.879852 C 205.657257 345.906525 206.010254 345.928314 206.363281 345.946259 C 207.070618 345.982086 207.783752 346.000946 208.5 346.000946 Z M 406.800781 314.961884 C 405.53595 314.93985 403.322998 314.279694 401.882813 313.49704 C 400.442627 312.714386 398.555298 310.581512 397.689453 308.756805 C 396.823547 306.932098 395.672241 302.752838 395.130859 299.469696 C 394.589539 296.186615 393.232483 289.675934 392.115234 285.000946 C 390.997986 280.325958 388.433411 271.550934 386.416016 265.500946 C 384.398621 259.450958 380.953552 250.675934 378.759766 246.000946 C 376.565979 241.325958 374.157593 235.549347 373.408203 233.165009 C 372.256287 229.500031 372.257935 228.322235 373.417969 225.545868 C 374.172668 223.739594 375.836731 221.528717 377.117188 220.631805 C 378.419434 219.719696 381.399658 219.000946 383.878906 219.000946 C 387.716736 219.000946 388.793335 219.512115 391.90625 222.80954 C 394.407043 225.458527 397.140686 230.661469 400.886719 239.90329 C 403.848633 247.210724 407.816895 257.953278 409.705078 263.776337 C 411.593323 269.599335 414.453064 280.857483 416.060547 288.793915 C 417.702576 296.901184 418.708801 304.379974 418.357422 305.862274 C 418.013489 307.313324 417.00647 309.33371 416.119141 310.352509 C 415.231812 311.371368 413.289246 312.833832 411.802734 313.602509 C 410.316284 314.371246 408.065552 314.983917 406.800781 314.961884 Z M 11.394531 314.665009 C 9.806952 314.647491 8.089108 314.315948 7.097656 313.786102 C 5.77567 313.079559 3.782955 311.273651 2.669922 309.774384 C 1.170415 307.754547 0.682862 305.664459 0.787109 301.702118 C 0.864502 298.761017 2.03452 291.211334 3.388672 284.926727 C 4.742794 278.64212 7.663673 267.981842 9.878906 261.237274 C 12.094172 254.492706 16.044165 244.367706 18.65625 238.737274 C 21.268305 233.106842 25.57453 224.597748 28.224609 219.827118 C 30.87472 215.056488 35.548565 207.66037 38.611328 203.391571 C 41.67403 199.122711 47.450878 191.775909 51.449219 187.065399 C 55.447529 182.354889 61.828747 175.575958 65.628906 172.000946 C 69.429108 168.425934 76.764885 161.921661 81.931641 157.545868 C 87.098396 153.170013 92.982544 148.769562 95.005859 147.768524 C 98.216919 146.17984 99.167847 146.111725 102.496094 147.225555 C 104.593201 147.92746 107.25177 149.772369 108.404297 151.325165 C 109.802673 153.209259 110.5 155.643585 110.5 158.645477 C 110.5 162.649139 110.048859 163.54953 106.394531 166.823212 C 104.136261 168.846222 99.411285 172.840668 95.894531 175.700165 C 92.377808 178.559662 85.356728 185.084625 80.292969 190.200165 C 75.22921 195.315643 68.546967 202.425934 65.443359 206.000946 C 62.339764 209.575958 56.56078 217.450958 52.599609 223.500946 C 48.638378 229.550934 43.094959 239.450958 40.28125 245.500946 C 37.467541 251.550934 33.339375 262.350922 31.109375 269.500946 C 28.879339 276.65097 26.364594 286.77597 25.519531 292.000946 C 24.674469 297.225922 23.546448 303.094147 23.013672 305.041962 C 22.480927 306.989838 20.756128 309.82077 19.179688 311.331024 C 17.603277 312.841339 14.779596 314.299835 12.90625 314.573212 C 12.437897 314.64151 11.923703 314.670807 11.394531 314.665009 Z M 93 276.000946 C 79.192909 276.000946 68 264.808075 68 251.000946 C 68 237.193817 79.192909 226.000946 93 226.000946 C 106.807083 226.000946 118 237.193817 118 251.000946 C 118 264.808075 106.807083 276.000946 93 276.000946 Z M 327 274.000946 C 313.192871 274.000946 302 262.808075 302 249.000946 C 302 235.193817 313.192871 224.000946 327 224.000946 C 340.807129 224.000946 352 235.193817 352 249.000946 C 352 262.808075 340.807129 274.000946 327 274.000946 Z M 358.955078 204.84079 C 356.623718 204.878326 355.208801 204.237335 352.5 202.256805 C 350.299988 200.648285 344.224976 195.370087 339 190.52829 C 333.775024 185.686432 325.280212 178.075958 320.121094 173.614227 C 314.962036 169.152496 310.064392 164.088593 309.238281 162.362274 C 308.268677 160.336029 307.966736 158.000458 308.384766 155.77243 C 308.740845 153.874237 310.135742 151.283539 311.484375 150.016571 C 313.105652 148.493439 315.564453 147.556488 318.744141 147.250946 C 323.154602 146.827118 323.966003 147.115875 328.527344 150.727509 C 331.262817 152.893463 338.815613 159.578278 345.310547 165.582977 C 351.80542 171.587677 358.187134 177.16098 359.492188 177.967743 C 361.634705 179.292206 362.070129 179.249359 363.980469 177.520477 C 365.167297 176.446381 365.95105 174.704926 365.767578 173.55368 C 365.587646 172.424957 363.964478 168.495697 362.160156 164.823212 C 359.459534 159.326141 358.777466 156.567047 358.300781 149.20993 C 357.882935 142.759796 358.175781 138.262909 359.353516 133.047821 C 360.250916 129.073822 362.630554 122.691437 364.640625 118.86618 C 366.865417 114.632477 370.99469 109.184845 375.195313 104.942352 C 380.815674 99.265961 383.989502 97.062653 392.298828 93.065399 C 397.909973 90.366058 406.549988 87.016083 411.5 85.62204 C 416.450012 84.227936 426.437927 81.949554 433.693359 80.557587 C 440.948792 79.165558 454.716431 77.278961 464.289063 76.36618 C 473.861755 75.4534 482.953125 75.022919 484.492188 75.409149 C 487.290466 76.111481 487.291199 76.110992 486.707031 90.305634 C 486.338501 99.26004 485.166138 109.389435 483.53125 117.743134 C 482.105835 125.026459 479.346008 135.563873 477.398438 141.159149 C 475.450806 146.754486 472.032654 154.970551 469.802734 159.416962 C 467.572876 163.863373 463.552185 170.268158 460.869141 173.649384 C 458.186096 177.030609 452.673523 182.339325 448.617188 185.446259 C 444.560791 188.553192 438.149658 192.393036 434.371094 193.979462 C 430.592529 195.565887 424.575623 197.401764 421 198.05954 C 415.986206 198.981964 412.439941 198.985809 405.5 198.079071 C 399.210938 197.257355 394.542664 195.949921 390 193.737274 C 386.424988 191.995941 382.717957 190.412018 381.761719 190.217743 C 380.757263 190.013641 378.645996 191.318756 376.761719 193.307587 C 374.967957 195.200836 371.584167 198.436798 369.242188 200.498993 C 366.15802 203.214752 363.814453 204.378021 360.742188 204.71579 C 360.079285 204.788666 359.493042 204.832123 358.955078 204.84079 Z M 195.550781 199.96579 C 197.228302 199.985504 199.140808 199.461761 199.800781 198.801727 C 200.592285 198.010223 201 193.761322 201 186.321259 C 201 175.041168 201.000946 175.040375 194.871094 168.270477 C 191.499695 164.546967 184.915253 157.47934 180.240234 152.563446 C 175.565216 147.647614 170.449646 141.842194 168.871094 139.663055 C 167.100708 137.219147 166 134.444427 166 132.422821 C 166 130.041901 166.750732 128.556122 168.740234 126.99118 C 170.668793 125.474152 172.475342 124.954254 174.849609 125.231415 C 177.596863 125.552155 179.856781 127.372894 187.058594 135.063446 C 193.26181 141.687714 196.583588 144.500946 198.199219 144.500946 C 200.501129 144.500946 200.501526 144.499939 200.769531 120.786102 C 201.037567 97.072266 201.036438 97.072052 197.982422 93.786102 C 196.302734 91.978851 193.763794 89.035187 192.339844 87.243134 C 190.915894 85.45108 189.75 82.839752 189.75 81.440399 C 189.75 80.041107 190.786163 77.794342 192.050781 76.448212 C 193.315399 75.102081 195.486511 74.000946 196.876953 74.000946 C 198.353821 74.000946 200.745636 75.300568 202.628906 77.125946 C 204.401947 78.844391 207.042725 80.47702 208.496094 80.754852 C 210.505371 81.138947 211.907654 80.514313 214.347656 78.149384 C 216.112549 76.438812 218.987915 74.753326 220.738281 74.40329 C 223.421448 73.866669 224.414307 74.260895 227.070313 76.916962 C 229.457642 79.30423 230.102051 80.694855 229.726563 82.659149 C 229.454041 84.084808 226.695374 87.667206 223.597656 90.620087 C 217.965454 95.988922 217.964905 95.989502 218.232422 120.745087 C 218.499878 145.50061 218.500244 145.501373 220.796875 145.416962 C 222.343445 145.360138 226.2771 142.012909 232.841797 135.166962 C 241.271317 126.376251 243.027771 125.000946 245.830078 125.000946 C 247.612427 125.000946 250.146423 125.706085 251.460938 126.567352 C 252.775391 127.428619 254.273438 129.344147 254.789063 130.823212 C 255.357849 132.454803 255.367798 134.493134 254.816406 136.006805 C 254.316589 137.378937 246.842056 145.402008 238.205078 153.836884 C 229.568039 162.27182 221.662048 170.211578 220.636719 171.479462 C 219.036682 173.458038 218.78009 175.519562 218.828125 186.034149 C 218.861206 193.279266 219.318237 198.719635 219.947266 199.348602 C 220.698669 200.100067 222.577698 200.083099 226.349609 199.291962 C 229.28595 198.676056 235.022461 196.2211 239.095703 193.836884 C 243.309448 191.370453 249.517151 186.422333 253.5 182.356415 C 257.349915 178.426178 262.023438 172.678558 263.884766 169.58493 C 265.746155 166.491241 268.595825 160.032806 270.216797 155.231415 C 272.85791 147.408539 273.199036 144.95047 273.498047 131.579071 C 273.771729 119.337311 273.485229 115.296356 271.902344 109.079071 C 270.841187 104.91098 267.887268 97.225922 265.339844 92.000946 C 262.792419 86.77597 258.458435 79.125946 255.708984 75.000946 C 252.959412 70.875946 248.125549 64.350922 244.966797 60.500946 C 241.808105 56.65097 234.651855 48.550934 229.0625 42.500946 C 223.473083 36.450958 217.372742 30.206635 215.507813 28.623993 C 213.642883 27.041412 210.977295 25.528961 209.583984 25.262665 C 207.550568 24.873932 205.795258 25.934479 200.689453 30.639618 C 197.190918 33.863617 191.443909 39.782501 187.916016 43.791962 C 184.388123 47.801483 179.096313 53.876495 176.158203 57.291962 C 173.220062 60.707489 169.189697 65.975922 167.201172 69.000946 C 165.212646 72.02597 162.038483 76.975922 160.146484 80.000946 C 158.254456 83.02597 155.717255 87.52597 154.509766 90.000946 C 153.302277 92.475922 151.174103 97.875946 149.779297 102.000946 C 148.38446 106.125946 146.512634 112.499725 145.621094 116.165009 C 144.729553 119.830292 144.005219 126.355316 144.011719 130.665009 C 144.019104 135.543976 144.921326 142.085785 146.400391 148.000946 C 147.706909 153.225922 150.438171 160.992706 152.470703 165.260712 C 154.513611 169.550568 158.436523 175.50528 161.242188 178.575165 C 164.0336 181.629425 168.951904 186.154083 172.171875 188.631805 C 175.391876 191.109528 181.283112 194.666412 185.263672 196.534149 C 189.244202 198.401886 193.873291 199.946014 195.550781 199.96579 Z M 410.056641 176.704071 C 411.029907 176.708771 412.020325 176.698456 413 176.668915 C 421.02124 176.426666 423.43396 175.936493 428.5 173.524384 C 432.34375 171.694244 436.749023 168.354584 440.757813 164.231415 C 445.236084 159.625397 448.290283 155.193573 451.496094 148.64743 C 453.959778 143.616547 457.397888 134.550934 459.136719 128.500946 C 460.875488 122.450958 462.633423 113.675934 463.042969 109.000946 C 463.600403 102.63797 463.467102 100.163849 462.513672 99.157196 C 461.447693 98.031708 459.061218 98.08493 447.871094 99.487274 C 440.517822 100.408783 429.17981 102.453766 422.675781 104.032196 C 416.171814 105.610565 407.574402 108.519562 403.572266 110.49704 C 399.57019 112.474518 393.85614 116.267914 390.873047 118.926727 C 387.889954 121.585541 384.142822 126.160431 382.546875 129.092743 C 380.270935 133.274323 379.556763 136.049408 379.230469 141.961884 C 379.001709 146.108002 379.294983 150.738434 379.882813 152.250946 C 380.582031 154.050018 381.683411 155.000946 383.070313 155.000946 C 384.482605 155.000946 391.502258 148.742401 404.097656 136.250946 C 414.495972 125.938446 424.103516 116.643707 425.447266 115.596649 C 426.791077 114.549591 429.342407 113.735626 431.117188 113.786102 C 433.369446 113.850128 435.33136 114.876862 437.613281 117.188446 C 439.411499 119.01004 441.143311 121.625946 441.462891 123.000946 C 441.839844 124.622894 441.306213 126.69693 439.943359 128.905243 C 438.788025 130.777313 428.990967 141.02121 418.171875 151.670868 C 407.352722 162.320526 398.363708 171.880402 398.195313 172.915009 C 397.985718 174.202423 398.77478 175.137543 400.695313 175.875946 C 401.94928 176.358063 405.83905 176.683502 410.056641 176.704071 Z"/>
</svg>
